#!OML:ASF G:\JayActor3\Patient Classification 1\Patient 1\Session 5\male.ASF
:FULLY-SPECIFIED
:DEGREES
1026
root 18.3248 17.0036 -0.872749 -379.423 45.0514 -377.537
lowerback 9.0935 -1.68414 11.6483
upperback 1.23383 -0.937176 2.12419
thorax -3.97296 -0.596836 -4.18521
lowerneck 0.366365 0.126919 2.95659
upperneck 0.655278 0.177597 1.93562
head 0.138298 0.102577 0.105454
rclavicle 9.87711e-015 -2.26615e-014
rhumerus -39.7063 -13.7555 -80.2107
rradius 22.6137
rwrist 12.5451
rhand -19.7572 -8.29018
rfingers 7.12502
rthumb 6.57419 -38.1681
lclavicle 9.87711e-015 -2.26615e-014
lhumerus -41.2799 39.6759 60.0307
lradius 7.64036
lwrist -16.2354
lhand -20.7374 13.0521
lfingers 7.12502
lthumb 5.6279 42.9573
rfemur 8.54093 -2.00292 38.4651
rtibia 3.97569e-015
rfoot -4.06155 -11.3599
rtoes 10.4097
lfemur -29.1619 36.9426 25.223
ltibia 134.755
lfoot -21.3955 -25.5105
ltoes -19.6535
1027
root 18.3905 17.0064 -0.796326 -379.782 45.1554 -377.902
lowerback 9.21276 -1.68767 11.787
upperback 1.27837 -0.908414 2.18988
thorax -3.98908 -0.582124 -4.19505
lowerneck 0.337518 0.0887877 2.9793
upperneck 0.675007 0.125272 1.95647
head 0.148643 0.0771216 0.108061
rclavicle -1.23604e-014 1.63003e-014
rhumerus -39.6311 -13.715 -80.2343
rradius 22.6887
rwrist 12.4851
rhand -19.8116 -8.37743
rfingers 7.12502
rthumb 6.52168 -38.257
lclavicle -1.23604e-014 1.63003e-014
lhumerus -41.1007 39.4709 60.3222
lradius 7.60701
lwrist -16.0355
lhand -20.8346 13.0285
lfingers 7.12502
lthumb 5.53404 42.9362
rfemur 8.96529 -2.13205 38.7503
rtibia 3.1408e-014
rfoot -4.1574 -11.5543
rtoes 10.4563
lfemur -27.1377 41.6604 33.061
ltibia 137.961
lfoot -25.1692 -28.3969
ltoes -19.3265
1028
root 18.4578 17.0079 -0.719843 -380.092 45.2419 -378.217
lowerback 9.30894 -1.68648 11.8931
upperback 1.31296 -0.879398 2.25434
thorax -4.00222 -0.567182 -4.18835
lowerneck 0.318259 0.0561553 2.98633
upperneck 0.71339 0.0800991 1.97443
head 0.163078 0.0554636 0.112294
rclavicle -7.03775e-014 -1.15295e-014
rhumerus -39.5771 -13.679 -80.2329
rradius 22.7455
rwrist 12.448
rhand -19.846 -8.44139
rfingers 7.12502
rthumb 6.48853 -38.322
lclavicle -7.03775e-014 -1.15295e-014
lhumerus -40.9666 39.2827 60.5843
lradius 7.56792
lwrist -15.8592
lhand -20.9165 13.0018
lfingers 7.12502
lthumb 5.45492 42.9116
rfemur 9.38232 -2.23087 39.0054
rtibia 1.94809e-014
rfoot -4.28915 -11.7547
rtoes 10.4095
lfemur -23.2986 46.2493 42.6553
ltibia 140.895
lfoot -29.5938 -31.0403
ltoes -18.8277
1029
root 18.5262 17.0081 -0.643046 -380.352 45.3235 -378.487
lowerback 9.38063 -1.68217 11.9625
upperback 1.34025 -0.853335 2.31578
thorax -4.00934 -0.553309 -4.16448
lowerneck 0.309055 0.0269879 2.97721
upperneck 0.754896 0.0397869 1.99533
head 0.176857 0.0361893 0.119993
rclavicle 6.54926e-014 6.75868e-015
rhumerus -39.5398 -13.6487 -80.2168
rradius 22.791
rwrist 12.4073
rhand -19.8683 -8.53777
rfingers 7.12502
rthumb 6.467 -38.419
lclavicle 6.54926e-014 6.75868e-015
lhumerus -40.8666 39.1069 60.8221
lradius 7.53068
lwrist -15.6957
lhand -21.0102 12.9591
lfingers 7.12502
lthumb 5.36446 42.8712
rfemur 9.79 -2.31071 39.2305
rtibia -2.0276e-014
rfoot -4.45748 -11.9585
rtoes 10.2789
lfemur -17.6749 50.1509 53.7151
ltibia 143.52
lfoot -34.5086 -33.1036
ltoes -18.3227
1030
root 18.5953 17.007 -0.565598 -380.578 45.4116 -378.724
lowerback 9.43936 -1.67956 11.9968
upperback 1.35695 -0.834342 2.37798
thorax -4.02112 -0.543177 -4.11946
lowerneck 0.315888 -0.000935197 2.94886
upperneck 0.791492 0.00181612 2.0181
head 0.186593 0.0178329 0.131337
rclavicle -1.18928e-013 -1.19271e-014
rhumerus -39.5256 -13.6177 -80.1866
rradius 22.8284
rwrist 12.3525
rhand -19.892 -8.64125
rfingers 7.12502
rthumb 6.44409 -38.5232
lclavicle -1.18928e-013 -1.19271e-014
lhumerus -40.8141 38.9375 61.0303
lradius 7.51081
lwrist -15.5408
lhand -21.0502 12.9614
lfingers 7.12502
lthumb 5.32592 42.8745
rfemur 10.1917 -2.38621 39.4318
rtibia -2.3059e-014
rfoot -4.66305 -12.1604
rtoes 10.0878
lfemur -11.0675 52.9708 65.1401
ltibia 145.794
lfoot -39.381 -34.4298
ltoes -17.892
1031
root 18.6646 17.0047 -0.487372 -380.788 45.5114 -378.944
lowerback 9.49349 -1.68098 12.0081
upperback 1.36834 -0.823536 2.43742
thorax -4.03704 -0.537269 -4.06358
lowerneck 0.334711 -0.0291087 2.91143
upperneck 0.812402 -0.0356597 2.04407
head 0.189698 -0.000660689 0.145108
rclavicle -3.45377e-014 7.95139e-015
rhumerus -39.5266 -13.6097 -80.1416
rradius 22.8482
rwrist 12.312
rhand -19.8889 -8.70069
rfingers 7.12502
rthumb 6.44703 -38.5826
lclavicle -3.45377e-014 7.95139e-015
lhumerus -40.7899 38.7692 61.216
lradius 7.505
lwrist -15.3717
lhand -21.0585 12.9979
lfingers 7.12502
lthumb 5.31783 42.9112
rfemur 10.5942 -2.46767 39.6172
rtibia -1.66979e-014
rfoot -4.90469 -12.3541
rtoes 9.87669
lfemur -4.64088 54.8087 75.5179
ltibia 147.676
lfoot -43.7273 -35.0108
ltoes -17.6253
1032
root 18.7336 17.0012 -0.408454 -381.002 45.6221 -379.167
lowerback 9.56653 -1.68954 12.0071
upperback 1.36524 -0.819223 2.49879
thorax -4.07988 -0.536338 -3.99749
lowerneck 0.373853 -0.0573093 2.86855
upperneck 0.819064 -0.0720333 2.06988
head 0.185269 -0.0190118 0.15972
rclavicle 3.54912e-014 3.4191e-014
rhumerus -39.5551 -13.6095 -80.0886
rradius 22.852
rwrist 12.2713
rhand -19.8874 -8.74193
rfingers 7.12502
rthumb 6.44856 -38.6238
lclavicle 3.54912e-014 3.4191e-014
lhumerus -40.8055 38.594 61.372
lradius 7.50768
lwrist -15.1798
lhand -21.0462 13.0283
lfingers 7.12502
lthumb 5.32977 42.9413
rfemur 10.9987 -2.56083 39.8017
rtibia 1.90833e-014
rfoot -5.17796 -12.533
rtoes 9.67951
lfemur 0.679132 56.136 83.7818
ltibia 149.134
lfoot -47.1561 -35.0394
ltoes -17.5184
1033
root 18.8022 16.9962 -0.329017 -381.239 45.7446 -379.413
lowerback 9.66204 -1.70466 12.0141
upperback 1.35431 -0.818422 2.5604
thorax -4.14436 -0.538609 -3.93464
lowerneck 0.414805 -0.0877951 2.83291
upperneck 0.813644 -0.111063 2.09264
head 0.176933 -0.0389073 0.172264
rclavicle -8.51757e-014 3.10104e-014
rhumerus -39.6024 -13.6257 -80.0357
rradius 22.8456
rwrist 12.2416
rhand -19.8835 -8.76971
rfingers 7.12502
rthumb 6.45227 -38.6514
lclavicle -8.51757e-014 3.10104e-014
lhumerus -40.8275 38.4057 61.5165
lradius 7.5136
lwrist -14.9567
lhand -20.9975 13.0975
lfingers 7.12502
lthumb 5.3768 43.0093
rfemur 11.4068 -2.67281 39.9982
rtibia -6.75868e-014
rfoot -5.4777 -12.696
rtoes 9.50806
lfemur 4.42569 57.5012 89.4012
ltibia 150.145
lfoot -49.489 -34.7102
ltoes -17.5849
